<svg width="58" height="58" viewBox="0 0 58 58" fill="none" xmlns="http://www.w3.org/2000/svg">
<rect width="58" height="58" fill="#0D0C0C"/>
<path d="M30.9584 22.2083H28.0417V28.0416H22.2084V30.9583H28.0417V36.7916H30.9584V30.9583H36.7917V28.0416H30.9584V22.2083ZM29.5001 14.9166C21.4501 14.9166 14.9167 21.45 14.9167 29.5C14.9167 37.55 21.4501 44.0833 29.5001 44.0833C37.5501 44.0833 44.0834 37.55 44.0834 29.5C44.0834 21.45 37.5501 14.9166 29.5001 14.9166ZM29.5001 41.1666C23.0688 41.1666 17.8334 35.9312 17.8334 29.5C17.8334 23.0687 23.0688 17.8333 29.5001 17.8333C35.9313 17.8333 41.1668 23.0687 41.1668 29.5C41.1668 35.9312 35.9313 41.1666 29.5001 41.1666Z" fill="white"/>
</svg>
