<svg width="13" height="13" viewBox="0 0 13 13" fill="none" xmlns="http://www.w3.org/2000/svg">
<path fill-rule="evenodd" clip-rule="evenodd" d="M0.686768 1.16705C0.686768 1.00794 0.749972 0.855353 0.862477 0.742848C0.974982 0.630343 1.12757 0.567139 1.28668 0.567139H7.28576C7.44487 0.567139 7.59746 0.630343 7.70996 0.742848C7.82247 0.855353 7.88567 1.00794 7.88567 1.16705C7.88567 1.32615 7.82247 1.47874 7.70996 1.59125C7.59746 1.70375 7.44487 1.76696 7.28576 1.76696H1.88658V7.16613C1.88658 7.32524 1.82338 7.47783 1.71088 7.59033C1.59837 7.70284 1.44578 7.76604 1.28668 7.76604C1.12757 7.76604 0.974982 7.70284 0.862477 7.59033C0.749972 7.47783 0.686768 7.32524 0.686768 7.16613V1.16705Z" fill="#838383"/>
<path fill-rule="evenodd" clip-rule="evenodd" d="M0.862037 0.737525C0.917763 0.681658 0.983964 0.637333 1.05685 0.60709C1.12973 0.576847 1.20786 0.561279 1.28677 0.561279C1.36568 0.561279 1.44381 0.576847 1.5167 0.60709C1.58958 0.637333 1.65578 0.681658 1.71151 0.737525L12.5099 11.5359C12.6225 11.6485 12.6858 11.8013 12.6858 11.9606C12.6858 12.1199 12.6225 12.2727 12.5099 12.3853C12.3972 12.498 12.2444 12.5613 12.0851 12.5613C11.9258 12.5613 11.773 12.498 11.6604 12.3853L0.862037 1.587C0.806169 1.53127 0.761845 1.46507 0.731602 1.39219C0.701358 1.3193 0.685791 1.24117 0.685791 1.16226C0.685791 1.08335 0.701358 1.00522 0.731602 0.932335C0.761845 0.859452 0.806169 0.793251 0.862037 0.737525V0.737525Z" fill="#838383"/>
</svg>
