<svg width="61" height="56" viewBox="0 0 61 56" fill="none" xmlns="http://www.w3.org/2000/svg">
<rect width="58" height="19.0164" fill="#0D0C0C"/>
<rect y="24" width="58" height="31.377" fill="#0D0C0C"/>
<path d="M11.5273 7.46875L14.3164 14.4297L17.1055 7.46875H18.5645V16H17.4395V12.6777L17.5449 9.0918L14.7441 16H13.8828L11.0879 9.10938L11.1992 12.6777V16H10.0742V7.46875H11.5273ZM20.0938 12.7715C20.0938 12.1504 20.2148 11.5918 20.457 11.0957C20.7031 10.5996 21.043 10.2168 21.4766 9.94727C21.9141 9.67773 22.4121 9.54297 22.9707 9.54297C23.834 9.54297 24.5312 9.8418 25.0625 10.4395C25.5977 11.0371 25.8652 11.832 25.8652 12.8242V12.9004C25.8652 13.5176 25.7461 14.0723 25.5078 14.5645C25.2734 15.0527 24.9355 15.4336 24.4941 15.707C24.0566 15.9805 23.5527 16.1172 22.9824 16.1172C22.123 16.1172 21.4258 15.8184 20.8906 15.2207C20.3594 14.623 20.0938 13.832 20.0938 12.8477V12.7715ZM21.1836 12.9004C21.1836 13.6035 21.3457 14.168 21.6699 14.5938C21.998 15.0195 22.4355 15.2324 22.9824 15.2324C23.5332 15.2324 23.9707 15.0176 24.2949 14.5879C24.6191 14.1543 24.7812 13.5488 24.7812 12.7715C24.7812 12.0762 24.6152 11.5137 24.2832 11.084C23.9551 10.6504 23.5176 10.4336 22.9707 10.4336C22.4355 10.4336 22.0039 10.6465 21.6758 11.0723C21.3477 11.498 21.1836 12.1074 21.1836 12.9004ZM28.25 9.66016L28.2852 10.457C28.7695 9.84766 29.4023 9.54297 30.1836 9.54297C31.5234 9.54297 32.1992 10.2988 32.2109 11.8105V16H31.127V11.8047C31.123 11.3477 31.0176 11.0098 30.8105 10.791C30.6074 10.5723 30.2891 10.4629 29.8555 10.4629C29.5039 10.4629 29.1953 10.5566 28.9297 10.7441C28.6641 10.9316 28.457 11.1777 28.3086 11.4824V16H27.2246V9.66016H28.25ZM33.582 12.7773C33.582 11.8047 33.8125 11.0234 34.2734 10.4336C34.7344 9.83984 35.3379 9.54297 36.084 9.54297C36.8262 9.54297 37.4141 9.79688 37.8477 10.3047V7H38.9316V16H37.9355L37.8828 15.3203C37.4492 15.8516 36.8457 16.1172 36.0723 16.1172C35.3379 16.1172 34.7383 15.8164 34.2734 15.2148C33.8125 14.6133 33.582 13.8281 33.582 12.8594V12.7773ZM34.666 12.9004C34.666 13.6191 34.8145 14.1816 35.1113 14.5879C35.4082 14.9941 35.8184 15.1973 36.3418 15.1973C37.0293 15.1973 37.5312 14.8887 37.8477 14.2715V11.3594C37.5234 10.7617 37.0254 10.4629 36.3535 10.4629C35.8223 10.4629 35.4082 10.668 35.1113 11.0781C34.8145 11.4883 34.666 12.0957 34.666 12.9004ZM44.5332 16C44.4707 15.875 44.4199 15.6523 44.3809 15.332C43.877 15.8555 43.2754 16.1172 42.5762 16.1172C41.9512 16.1172 41.4375 15.9414 41.0352 15.5898C40.6367 15.2344 40.4375 14.7852 40.4375 14.2422C40.4375 13.582 40.6875 13.0703 41.1875 12.707C41.6914 12.3398 42.3984 12.1562 43.3086 12.1562H44.3633V11.6582C44.3633 11.2793 44.25 10.9785 44.0234 10.7559C43.7969 10.5293 43.4629 10.416 43.0215 10.416C42.6348 10.416 42.3105 10.5137 42.0488 10.709C41.7871 10.9043 41.6562 11.1406 41.6562 11.418H40.5664C40.5664 11.1016 40.6777 10.7969 40.9004 10.5039C41.127 10.207 41.4316 9.97266 41.8145 9.80078C42.2012 9.62891 42.625 9.54297 43.0859 9.54297C43.8164 9.54297 44.3887 9.72656 44.8027 10.0938C45.2168 10.457 45.4316 10.959 45.4473 11.5996V14.5176C45.4473 15.0996 45.5215 15.5625 45.6699 15.9062V16H44.5332ZM42.7344 15.1738C43.0742 15.1738 43.3965 15.0859 43.7012 14.9102C44.0059 14.7344 44.2266 14.5059 44.3633 14.2246V12.9238H43.5137C42.1855 12.9238 41.5215 13.3125 41.5215 14.0898C41.5215 14.4297 41.6348 14.6953 41.8613 14.8867C42.0879 15.0781 42.3789 15.1738 42.7344 15.1738ZM49.127 14.4121L50.6035 9.66016H51.7637L49.2148 16.9785C48.8203 18.0332 48.1934 18.5605 47.334 18.5605L47.1289 18.543L46.7246 18.4668V17.5879L47.0176 17.6113C47.3848 17.6113 47.6699 17.5371 47.873 17.3887C48.0801 17.2402 48.25 16.9688 48.3828 16.5742L48.623 15.9297L46.3613 9.66016H47.5449L49.127 14.4121Z" fill="#FFFCFC"/>
<path d="M17.1406 38.6211H19.584C21.1191 38.5977 22.3262 38.1934 23.2051 37.4082C24.084 36.623 24.5234 35.5625 24.5234 34.2266C24.5234 31.2266 23.0293 29.7266 20.041 29.7266C18.6348 29.7266 17.5098 30.1309 16.666 30.9395C15.834 31.7363 15.418 32.7969 15.418 34.1211H12.166C12.166 32.0938 12.9043 30.4121 14.3809 29.0762C15.8691 27.7285 17.7559 27.0547 20.041 27.0547C22.4551 27.0547 24.3477 27.6934 25.7188 28.9707C27.0898 30.248 27.7754 32.0234 27.7754 34.2969C27.7754 35.4102 27.4121 36.4883 26.6855 37.5312C25.9707 38.5742 24.9922 39.3535 23.75 39.8691C25.1562 40.3145 26.2402 41.0527 27.002 42.084C27.7754 43.1152 28.1621 44.375 28.1621 45.8633C28.1621 48.1602 27.4121 49.9824 25.9121 51.3301C24.4121 52.6777 22.4609 53.3516 20.0586 53.3516C17.6562 53.3516 15.6992 52.7012 14.1875 51.4004C12.6875 50.0996 11.9375 48.3828 11.9375 46.25H15.207C15.207 47.5977 15.6465 48.6758 16.5254 49.4844C17.4043 50.293 18.582 50.6973 20.0586 50.6973C21.6289 50.6973 22.8301 50.2871 23.6621 49.4668C24.4941 48.6465 24.9102 47.4688 24.9102 45.9336C24.9102 44.4453 24.4531 43.3027 23.5391 42.5059C22.625 41.709 21.3066 41.2988 19.584 41.2754H17.1406V38.6211ZM43.3145 53H40.0449V31.3262L33.4883 33.7344V30.7812L42.8047 27.2832H43.3145V53Z" fill="#FFFEFE"/>
</svg>
