<svg width="19" height="19" viewBox="0 0 19 19" fill="none" xmlns="http://www.w3.org/2000/svg">
<path d="M14.014 11.939L11.5745 9.49975L14.0133 7.06075C14.0617 7.01219 14.089 6.94637 14.089 6.87775C14.089 6.80913 14.0617 6.74331 14.0133 6.69475L12.305 4.986C12.2564 4.93751 12.1906 4.91028 12.122 4.91028C12.0534 4.91028 11.9876 4.93751 11.939 4.986L9.49975 7.425L7.061 4.986C6.964 4.889 6.79225 4.889 6.695 4.986L4.98625 6.69475C4.93783 6.74334 4.91063 6.80915 4.91063 6.87775C4.91063 6.94635 4.93783 7.01215 4.98625 7.06075L7.42525 9.49975L4.98575 11.9392C4.93734 11.9878 4.91016 12.0536 4.91016 12.1221C4.91016 12.1907 4.93734 12.2564 4.98575 12.305L6.694 14.0135C6.718 14.0376 6.74651 14.0567 6.77792 14.0698C6.80932 14.0828 6.84299 14.0895 6.877 14.0895C6.91101 14.0895 6.94468 14.0828 6.97608 14.0698C7.00749 14.0567 7.03601 14.0376 7.06 14.0135L9.49925 11.5742L11.9388 14.0132C11.9893 14.064 12.0553 14.0892 12.1218 14.0892C12.1883 14.0892 12.2543 14.064 12.3048 14.0132L14.0135 12.3047C14.0376 12.2808 14.0567 12.2523 14.0698 12.2209C14.0829 12.1896 14.0896 12.156 14.0897 12.122C14.0897 12.088 14.083 12.0543 14.0701 12.0229C14.0571 11.9915 14.038 11.963 14.014 11.939V11.939Z" fill="#6D6D6D"/>
<path d="M9.5 2.61C13.299 2.61 16.39 5.70175 16.39 9.5005C16.39 13.2997 13.299 16.3902 9.5 16.3902C5.701 16.3902 2.61 13.2997 2.61 9.5005C2.61 5.70175 5.701 2.61 9.5 2.61ZM9.5 0.125C4.3225 0.125 0.125 4.32325 0.125 9.5005C0.125 14.678 4.3225 18.875 9.5 18.875C14.6772 18.875 18.875 14.678 18.875 9.5005C18.875 4.32325 14.6772 0.125 9.5 0.125V0.125Z" fill="#6D6D6D"/>
</svg>
