<svg width="58" height="58" viewBox="0 0 58 58" fill="none" xmlns="http://www.w3.org/2000/svg">
<rect width="58" height="58" fill="#0D0C0C"/>
<path d="M44.3447 28.3888L30.2661 14.3204C30.1647 14.2188 30.0443 14.1383 29.9118 14.0833C29.7792 14.0283 29.6372 14 29.4937 14C29.3502 14 29.2081 14.0283 29.0755 14.0833C28.943 14.1383 28.8226 14.2188 28.7212 14.3204L14.6426 28.3888C14.2324 28.7989 14 29.3561 14 29.9371C14 31.1436 14.981 32.1246 16.1875 32.1246H17.6709V42.1632C17.6709 42.7682 18.1597 43.2569 18.7646 43.2569H27.3062V35.6007H31.1343V43.2569H40.2227C40.8276 43.2569 41.3164 42.7682 41.3164 42.1632V32.1246H42.7998C43.3809 32.1246 43.938 31.8956 44.3481 31.482C45.1992 30.6275 45.1992 29.2433 44.3447 28.3888Z" fill="white"/>
</svg>
