<svg width="32" height="30" viewBox="0 0 32 30" fill="none" xmlns="http://www.w3.org/2000/svg">
<path d="M21.0038 15.6C21.0038 16.8432 20.4934 18.0355 19.5851 18.9145C18.6767 19.7936 17.4446 20.2875 16.16 20.2875C14.8754 20.2875 13.6433 19.7936 12.735 18.9145C11.8266 18.0355 11.3163 16.8432 11.3163 15.6C11.3163 15.3328 11.3453 15.0719 11.3954 14.8187H9.70167V21.064C9.70167 21.4984 10.065 21.85 10.5138 21.85H21.8078C22.0229 21.8496 22.2291 21.7666 22.381 21.6192C22.533 21.4719 22.6183 21.2722 22.6183 21.064V14.8187H20.9246C20.9747 15.0719 21.0038 15.3328 21.0038 15.6V15.6ZM16.16 18.725C16.5842 18.7249 17.0042 18.6439 17.396 18.4867C17.7878 18.3296 18.1438 18.0992 18.4437 17.8089C18.7436 17.5186 18.9814 17.1739 19.1436 16.7947C19.3058 16.4154 19.3893 16.0089 19.3892 15.5984C19.3891 15.1879 19.3054 14.7815 19.143 14.4023C18.9806 14.0231 18.7426 13.6786 18.4426 13.3884C18.1426 13.0982 17.7864 12.868 17.3945 12.711C17.0026 12.5541 16.5826 12.4733 16.1584 12.4734C15.3017 12.4736 14.4803 12.8031 13.8747 13.3895C13.2691 13.9758 12.929 14.771 12.9292 15.6C12.9294 16.429 13.2699 17.224 13.8758 17.81C14.4817 18.3961 15.3034 18.7252 16.16 18.725V18.725ZM20.035 12.3187H21.9709C22.0995 12.3187 22.2229 12.2694 22.314 12.1815C22.4051 12.0937 22.4565 11.9744 22.4569 11.85V9.97654C22.4569 9.8518 22.4057 9.73218 22.3145 9.64398C22.2234 9.55578 22.0998 9.50622 21.9709 9.50622H20.035C19.9061 9.50622 19.7825 9.55578 19.6914 9.64398C19.6002 9.73218 19.549 9.8518 19.549 9.97654V11.85C19.5506 12.1078 19.7686 12.3187 20.035 12.3187V12.3187ZM16.16 0.599976C12.0491 0.599976 8.10666 2.18033 5.19985 4.99337C2.29303 7.80642 0.660004 11.6217 0.660004 15.6C0.660004 19.5782 2.29303 23.3935 5.19985 26.2066C8.10666 29.0196 12.0491 30.6 16.16 30.6C18.1955 30.6 20.2111 30.212 22.0916 29.4582C23.9721 28.7043 25.6809 27.5995 27.1202 26.2066C28.5595 24.8137 29.7012 23.1601 30.4801 21.3402C31.2591 19.5203 31.66 17.5698 31.66 15.6C31.66 13.6301 31.2591 11.6796 30.4801 9.85972C29.7012 8.03984 28.5595 6.38625 27.1202 4.99337C25.6809 3.60049 23.9721 2.4956 22.0916 1.74178C20.2111 0.987962 18.1955 0.599976 16.16 0.599976V0.599976ZM24.2329 21.6765C24.2329 22.6312 23.4256 23.4125 22.4391 23.4125H9.88089C8.89438 23.4125 8.08709 22.6312 8.08709 21.6765V9.52341C8.08709 8.56872 8.89438 7.78747 9.88089 7.78747H22.4391C23.4256 7.78747 24.2329 8.56872 24.2329 9.52341V21.6765V21.6765Z" fill="#898888"/>
</svg>
