<svg width="58" height="58" viewBox="0 0 58 58" fill="none" xmlns="http://www.w3.org/2000/svg">
<rect width="58" height="58" fill="#0D0C0C"/>
<path d="M29.5 13C27.1136 13 25.2493 13.8401 23.907 15.5204C22.5646 17.2006 21.8935 19.3485 21.8935 21.964C21.8769 25.2135 22.9706 27.7894 25.1747 29.6916C25.4564 29.9452 25.5559 30.2702 25.473 30.6664L24.9013 31.8077C24.719 32.1882 24.4497 32.4854 24.0934 32.6994C23.7371 32.9134 22.9872 33.2185 21.8438 33.6148C21.794 33.6307 20.7459 33.9556 18.6992 34.5897C16.6526 35.2237 15.563 35.5725 15.4304 35.6359C14.0384 36.1907 13.1269 36.7692 12.696 37.3716C12.232 38.3702 12 40.8986 12 44.9565H47C47 40.8986 46.768 38.3702 46.304 37.3716C45.8731 36.7692 44.9616 36.1907 43.5696 35.6359C43.437 35.5725 42.3474 35.2237 40.3008 34.5897C38.2541 33.9556 37.206 33.6307 37.1562 33.6148C36.0128 33.2185 35.2629 32.9134 34.9066 32.6994C34.5503 32.4854 34.281 32.1882 34.0987 31.8077L33.527 30.6664C33.4441 30.2702 33.5436 29.9452 33.8253 29.6916C36.0294 27.7894 37.1231 25.2135 37.1065 21.964C37.1065 19.3485 36.4354 17.2006 35.093 15.5204C33.7507 13.8401 31.8864 13 29.5 13Z" fill="white"/>
</svg>
