<svg width="25" height="25" viewBox="0 0 18 18" fill="none" xmlns="http://www.w3.org/2000/svg">
<path d="M8.9999 0.899902C4.4999 0.899902 0.899902 4.4999 0.899902 8.9999C0.899902 13.4999 4.4999 17.0999 8.9999 17.0999C13.4999 17.0999 17.0999 13.4999 17.0999 8.9999C17.0999 4.4999 13.4999 0.899902 8.9999 0.899902ZM8.9999 15.2999C5.4899 15.2999 2.6999 12.5099 2.6999 8.9999C2.6999 5.4899 5.4899 2.6999 8.9999 2.6999C12.5099 2.6999 15.2999 5.4899 15.2999 8.9999C15.2999 12.5099 12.5099 15.2999 8.9999 15.2999ZM5.3999 8.0999V9.8999H12.5999V8.0999H5.3999Z" fill="#FF0000"/>
</svg>
