<svg width="58" height="58" viewBox="0 0 58 58" fill="none" xmlns="http://www.w3.org/2000/svg">
<rect width="58" height="58" fill="#0D0C0C"/>
<path d="M28.9999 17.3333C27.1499 17.3333 25.6666 18.8166 25.6666 20.6666C25.6666 22.5166 27.1499 24 28.9999 24C30.8499 24 32.3333 22.5166 32.3333 20.6666C32.3333 18.8166 30.8499 17.3333 28.9999 17.3333ZM45.6666 10.6666V19H42.3333V15.6666H15.6666V19H12.3333V10.6666H15.6666V14H42.3333V10.6666H45.6666ZM33.9999 27.7666V47.3333H30.6666V39H27.3333V47.3333H23.9999V27.7666C20.5499 25.95 18.1666 22.3333 18.1666 18.1666V17.3333H21.4999V18.1666C21.4999 22.3333 24.8333 25.6666 28.9999 25.6666C33.1666 25.6666 36.4999 22.3333 36.4999 18.1666V17.3333H39.8333V18.1666C39.8333 22.3333 37.4499 25.95 33.9999 27.7666Z" fill="white"/>
</svg>
