<svg width="32" height="32" viewBox="0 0 32 32" fill="none" xmlns="http://www.w3.org/2000/svg">
<path d="M27.0886 17.8333C27.14 17.4166 27.1743 16.9833 27.1743 16.5333C27.1743 16.0833 27.14 15.65 27.0714 15.2333L29.9685 13.0333C30.0928 12.9321 30.1776 12.7925 30.2088 12.6378C30.24 12.4831 30.2157 12.3227 30.14 12.1833L27.3972 7.56665C27.2257 7.26665 26.8657 7.16665 26.5572 7.26665L23.1458 8.59998C22.4374 8.06834 21.6591 7.63114 20.8315 7.29999L20.3173 3.76666C20.2925 3.60769 20.2094 3.46279 20.0834 3.35866C19.9574 3.25452 19.7969 3.19818 19.6316 3.19999H14.1459C13.9824 3.19838 13.824 3.2552 13.7008 3.35967C13.5775 3.46413 13.498 3.60896 13.4774 3.76666L12.9631 7.29999C12.137 7.63388 11.359 8.07089 10.6489 8.59998L7.23748 7.26665C7.08387 7.20908 6.91396 7.20776 6.75942 7.26295C6.60488 7.31815 6.47625 7.42609 6.3975 7.56665L3.65469 12.1833C3.56986 12.3205 3.54043 12.4833 3.5721 12.6404C3.60378 12.7974 3.6943 12.9375 3.82611 13.0333L6.72321 15.2333C6.65464 15.65 6.60321 16.1 6.60321 16.5333C6.60321 16.9666 6.6375 17.4166 6.70607 17.8333L3.80897 20.0333C3.68468 20.1345 3.59986 20.2741 3.56866 20.4288C3.53746 20.5835 3.56178 20.7439 3.63754 20.8833L6.38036 25.5C6.55178 25.8 6.91178 25.9 7.22034 25.8L10.6317 24.4666C11.3401 24.9983 12.1184 25.4355 12.946 25.7666L13.4602 29.2999C13.5288 29.6333 13.8031 29.8666 14.1459 29.8666H19.6316C19.9744 29.8666 20.2658 29.6333 20.3001 29.2999L20.8144 25.7666C21.6406 25.4327 22.4185 24.9957 23.1287 24.4666L26.54 25.8C26.8486 25.9166 27.2086 25.8 27.38 25.5L30.1228 20.8833C30.2076 20.7461 30.2371 20.5833 30.2054 20.4262C30.1737 20.2692 30.0832 20.1291 29.9514 20.0333L27.0886 17.8333ZM16.8888 21.5333C14.0602 21.5333 11.746 19.2833 11.746 16.5333C11.746 13.7833 14.0602 11.5333 16.8888 11.5333C19.7173 11.5333 22.0315 13.7833 22.0315 16.5333C22.0315 19.2833 19.7173 21.5333 16.8888 21.5333Z" fill="#D1D1D1"/>
</svg>
