<svg width="31" height="30" viewBox="0 0 31 30" fill="none" xmlns="http://www.w3.org/2000/svg">
<path d="M15.5 0C6.9404 0 0 6.71652 0 15C0 23.2835 6.9404 30 15.5 30C24.0596 30 31 23.2835 31 15C31 6.71652 24.0596 0 15.5 0ZM22.949 11.3069C22.9594 11.4643 22.9594 11.6283 22.9594 11.7891C22.9594 16.7042 19.0913 22.3661 12.0229 22.3661C9.84319 22.3661 7.82266 21.7533 6.12042 20.6987C6.43181 20.7321 6.72935 20.7455 7.04766 20.7455C8.84676 20.7455 10.5006 20.1562 11.8187 19.1585C10.1304 19.125 8.71183 18.0536 8.22745 16.5804C8.81908 16.6641 9.3519 16.6641 9.96083 16.5134C9.09146 16.3425 8.31006 15.8855 7.74936 15.2203C7.18867 14.555 6.88327 13.7223 6.88504 12.8638V12.817C7.39364 13.0949 7.99219 13.2656 8.61841 13.2891C8.09198 12.9495 7.66024 12.4895 7.3615 11.9499C7.06276 11.4102 6.90623 10.8075 6.9058 10.1953C6.9058 9.50223 7.09263 8.86942 7.42824 8.32031C8.39319 9.46988 9.5973 10.4101 10.9623 11.0798C12.3273 11.7495 13.8227 12.1338 15.3512 12.2076C14.808 9.67969 16.7594 7.63393 19.1051 7.63393C20.2123 7.63393 21.2087 8.08259 21.911 8.8058C22.7795 8.64844 23.6098 8.3337 24.3502 7.91183C24.0631 8.77232 23.461 9.49888 22.6618 9.95759C23.4368 9.87723 24.1842 9.66964 24.8761 9.37835C24.3537 10.1217 23.6998 10.7813 22.949 11.3069V11.3069Z" fill="#898888"/>
</svg>
