<svg width="31" height="30" viewBox="0 0 31 30" fill="none" xmlns="http://www.w3.org/2000/svg">
<ellipse cx="15.5" cy="15" rx="15.5" ry="15" fill="#898888"/>
<path d="M7.37931 10.0302V13.1804H9.17241V10.0302L11.5862 4.83868H9.68966L8.27586 8.2157L6.86207 4.83868H4.89655L7.37931 10.0302ZM12.2069 10.2318C12.2069 11.3911 12.3448 11.8195 12.5517 12.2732C12.931 13.004 13.6207 13.3568 14.6897 13.3568C15.7586 13.3568 16.4828 13.004 16.8621 12.2732C17.069 11.8195 17.2069 11.3911 17.2069 10.2318C17.2069 9.07256 17.069 8.44251 16.8621 7.98889C16.4828 7.25804 15.7586 6.90522 14.6897 6.90522C13.6207 6.90522 12.931 7.25804 12.5517 7.98889C12.3448 8.46772 12.2069 9.07256 12.2069 10.2318ZM23.1034 13.1804V7.08163H21.4483V10.7359C21.4483 11.1139 21.4138 11.4163 21.3448 11.5675C21.2414 11.8699 21 11.9959 20.6897 11.9959C20.3793 11.9959 20.1724 11.8699 20.069 11.6179C20.0345 11.4667 20 11.1895 20 10.8367V7.08163H18.4138V11.7187C18.4138 12.8024 18.931 13.3568 20 13.3568C20.6207 13.3568 21.1724 13.0796 21.4828 12.5V13.1804H23.1034ZM15.5172 10.1058V10.5595C15.5172 11.2903 15.5172 11.2903 15.4828 11.3911C15.3793 11.8951 15.1034 12.1724 14.6897 12.1724C14.2414 12.1724 14 11.8699 13.8966 11.2651V9.92941C13.8966 9.29937 13.8966 8.89614 13.931 8.77014C14.0345 8.31651 14.2759 8.11489 14.6897 8.11489C15.1034 8.11489 15.3793 8.39211 15.4828 8.87094C15.5172 9.02215 15.5172 9.42538 15.5172 10.1058ZM7.51724 14.0373H21.4828C23.4138 14.0373 25 15.2217 25 16.633V21.5978C25 23.009 23.4138 24.1935 21.4828 24.1935H7.51724C5.58621 24.1935 4 23.009 4 21.5978V16.633C4 15.2217 5.58621 14.0373 7.51724 14.0373ZM8.75862 16.759H10.2069V15.7006H6.03448V16.759H7.48276V22.1522H8.75862V16.759ZM16.2759 22.1522V21.623C16.4828 22.0262 16.8621 22.2782 17.3448 22.2782C17.931 22.2782 18.3448 21.9758 18.5172 21.3457C18.6207 21.0433 18.6897 20.5141 18.6897 19.758C18.6897 18.9768 18.6207 18.4224 18.5517 18.0947C18.3793 17.4647 17.931 17.1623 17.3448 17.1623C16.8966 17.1623 16.5517 17.3639 16.3448 17.7167V15.7006H15.2069V22.1522H16.2759ZM20.6207 19.884H22.9655V19.506C22.9655 18.5988 22.8276 18.0191 22.6207 17.7167C22.3448 17.3639 21.8621 17.1623 21.2414 17.1623C20.5862 17.1623 20.1034 17.3639 19.8276 17.6915C19.6552 17.8931 19.5172 18.1955 19.4828 18.5988C19.4483 18.7752 19.4138 19.128 19.4138 19.5816C19.4138 20.1613 19.4483 20.5393 19.4828 20.7409C19.5172 21.1945 19.6552 21.5726 19.8621 21.8246C20.1379 22.127 20.6207 22.2782 21.2069 22.2782C21.7931 22.2782 22.2414 22.1522 22.5172 21.9002C22.7931 21.6482 22.931 21.2449 22.931 20.6653V20.4637H21.7931C21.7931 21.1189 21.6207 21.4213 21.2414 21.4213C20.9655 21.4213 20.7586 21.2701 20.6897 20.9677C20.6207 20.8165 20.6207 20.5393 20.6207 20.1865V19.884ZM13 22.1522H14.1724V17.2883H12.9655V20.3881C12.9655 20.6653 12.9655 20.8669 12.8966 20.9929C12.8276 21.1945 12.6897 21.2953 12.4483 21.2953C12.2414 21.2953 12.069 21.2197 12 21.0181C11.931 20.9173 11.931 20.7157 11.931 20.4637V17.2883H10.8276V21.0937C10.8276 21.875 11.1379 22.2782 11.931 22.2782C12.3793 22.2782 12.7586 22.0514 13 21.6482V22.1522ZM20.6207 18.9768V18.9012C20.5862 18.624 20.6207 18.372 20.7241 18.2207C20.8276 18.0947 21 18.0191 21.2069 18.0191C21.4483 18.0191 21.6207 18.1199 21.6897 18.2963C21.7586 18.4224 21.7586 18.624 21.7586 18.9012V19.1028H20.6207V18.9768ZM16.9655 18.0947C17.2414 18.0947 17.4138 18.3467 17.4828 18.7752V19.7328C17.4828 19.7328 17.4828 20.6149 17.4483 20.6905C17.4138 21.1189 17.2414 21.3457 16.9655 21.3457C16.6552 21.3457 16.4138 21.1693 16.3448 20.8165C16.3103 20.6905 16.3103 20.3881 16.3103 19.9345C16.3103 19.3044 16.3103 18.9516 16.3448 18.8508C16.4138 18.372 16.6207 18.0947 16.9655 18.0947Z" fill="#000"/>
</svg>
